<?xml version="1.0" standalone="no"?>
<!DOCTYPE svg PUBLIC "-//W3C//DTD SVG 20010904//EN"
 "http://www.w3.org/TR/2001/REC-SVG-20010904/DTD/svg10.dtd">
<svg version="1.0" xmlns="http://www.w3.org/2000/svg"
 width="1080.000000pt" height="1080.000000pt" viewBox="0 0 1080.000000 1080.000000"
 preserveAspectRatio="xMidYMid meet">
<metadata>
Created by potrace 1.14, written by Peter Selinger 2001-2017
</metadata>
<g transform="translate(0.000000,1080.000000) scale(0.100000,-0.100000)"
fill="#000000" stroke="none">
<path d="M3039 8306 c-2 -2 -37 -7 -77 -10 -43 -4 -89 -15 -110 -26 -20 -11
-44 -20 -53 -20 -20 0 -42 -24 -31 -35 4 -4 -6 -5 -21 -3 -24 5 -28 3 -25 -17
3 -22 -22 -55 -41 -55 -6 0 -11 -4 -11 -10 0 -5 4 -10 9 -10 5 0 7 -37 5 -83
-4 -102 14 -183 64 -291 42 -88 137 -241 183 -294 16 -18 49 -63 74 -100 24
-37 78 -110 120 -162 42 -52 79 -102 83 -110 3 -8 28 -44 55 -80 27 -35 52
-71 55 -80 3 -8 12 -23 20 -33 9 -10 17 -28 19 -39 2 -12 10 -29 19 -39 8 -9
19 -41 23 -70 8 -51 13 -58 112 -153 57 -55 91 -89 74 -75 -16 13 -58 50 -92
81 -34 32 -66 58 -72 58 -24 0 -9 -29 34 -64 25 -21 42 -42 39 -47 -3 -5 3 -6
12 -2 13 5 16 3 11 -10 -4 -10 -2 -14 6 -12 7 3 28 -9 47 -25 23 -20 28 -28
15 -24 -15 5 -13 0 10 -21 21 -18 14 -16 -21 9 -29 20 -54 36 -57 36 -4 0 -28
23 -54 51 -26 28 -56 55 -68 61 -16 9 -18 8 -7 -3 15 -16 16 -33 1 -23 -6 3
-23 -2 -37 -13 -15 -11 -36 -23 -46 -26 -10 -4 -16 -10 -13 -14 11 -10 -14
-33 -35 -33 -10 0 -17 -4 -13 -9 3 -6 -2 -14 -11 -19 -12 -7 -13 -11 -5 -17 9
-5 7 -11 -6 -21 -17 -13 -17 -13 5 -14 24 0 30 -15 10 -23 -7 -2 2 -7 20 -11
17 -4 32 -14 32 -22 0 -8 9 -14 20 -14 26 0 25 -15 0 -43 -19 -20 -19 -22 -3
-28 16 -5 15 -7 -5 -18 -21 -11 -41 -44 -48 -80 -3 -15 -23 -31 -39 -31 -6 0
-12 -12 -13 -27 -1 -16 -9 -33 -18 -40 -10 -7 -14 -20 -11 -33 3 -12 0 -20 -8
-20 -9 0 -11 -13 -8 -50 5 -57 -2 -61 -57 -34 -27 14 -34 14 -41 3 -5 -8 -7
-18 -6 -24 6 -16 -16 -32 -38 -27 -20 3 -21 0 -20 -42 1 -26 -2 -46 -8 -46 -6
0 -2 -9 7 -19 13 -15 14 -20 4 -24 -10 -3 -10 -7 -1 -17 10 -11 9 -16 -4 -26
-15 -10 -15 -16 -5 -39 12 -25 11 -26 -10 -20 -19 6 -21 5 -10 -6 17 -19 15
-39 -5 -39 -10 -1 -29 -7 -42 -14 l-24 -13 24 -17 24 -18 -25 7 c-14 4 -32 10
-40 13 -11 4 -12 2 -4 -7 6 -7 38 -16 70 -21 60 -9 282 -79 253 -80 -8 0 -49
11 -90 25 -72 25 -120 35 -263 56 -53 7 -87 6 -151 -6 -45 -8 -96 -17 -113
-20 -18 -3 -44 -7 -59 -9 -16 -3 -80 -9 -143 -15 -209 -18 -579 -99 -700 -153
-99 -44 -133 -64 -169 -98 -40 -37 -88 -109 -83 -124 2 -5 -5 -17 -14 -27 -15
-17 -15 -19 -1 -25 10 -3 15 -15 13 -26 -1 -11 8 -32 21 -46 13 -14 23 -31 23
-38 0 -8 3 -14 8 -14 4 -1 36 -28 72 -61 122 -114 255 -191 582 -338 26 -11
52 -21 58 -21 6 0 29 -9 53 -20 23 -11 67 -28 97 -39 30 -11 93 -34 140 -50
74 -27 99 -31 190 -31 73 0 112 -4 125 -14 11 -7 52 -30 90 -51 39 -21 77 -43
85 -50 8 -6 29 -17 47 -24 35 -14 45 -31 48 -78 2 -18 6 -45 10 -60 5 -15 7
-34 6 -40 -1 -7 3 -13 9 -13 5 0 10 -8 10 -18 0 -10 5 -23 12 -30 7 -7 9 -12
5 -12 -4 0 2 -17 13 -37 11 -21 20 -43 20 -50 0 -7 9 -18 19 -25 15 -9 17 -16
10 -25 -8 -8 -6 -19 5 -35 9 -12 16 -31 16 -41 0 -9 6 -20 14 -23 8 -3 12 -13
9 -25 -3 -10 0 -19 6 -19 6 0 11 -7 11 -15 0 -8 4 -15 10 -15 5 0 7 -6 4 -14
-3 -9 3 -17 15 -21 12 -3 21 -11 21 -17 0 -6 7 -19 15 -28 9 -10 17 -30 18
-45 2 -30 36 -75 56 -75 6 0 11 -9 11 -20 0 -22 4 -24 28 -11 15 8 18 5 17
-25 -2 -34 18 -48 28 -21 4 9 6 9 6 0 1 -7 8 -10 16 -7 10 4 13 2 10 -8 -3 -8
6 -20 23 -30 34 -20 46 -14 31 15 -10 17 -9 19 10 14 27 -7 27 1 -1 31 -23 24
-23 24 -2 18 21 -6 28 -2 61 38 18 22 5 59 -20 52 -18 -4 -19 -3 -5 10 13 13
20 14 37 5 22 -12 45 -6 36 9 -3 5 0 12 5 15 6 4 15 18 20 31 5 13 21 26 35
30 20 5 24 11 19 27 -5 15 -3 19 9 14 10 -4 24 3 36 18 10 14 26 25 35 25 9 0
16 6 16 13 0 12 29 32 115 77 28 15 61 33 74 41 18 11 25 11 28 2 7 -19 27
-16 56 7 14 11 29 20 34 19 30 -5 52 2 47 16 -7 19 35 37 53 23 8 -6 17 -1 28
16 19 28 13 48 -12 39 -13 -5 -15 -3 -8 13 4 10 8 30 8 44 -1 14 3 33 8 42 14
26 -6 23 -31 -4 -15 -17 -23 -19 -32 -10 -9 9 -8 16 4 29 24 29 33 47 18 38
-10 -6 -12 -4 -6 11 6 15 2 14 -20 -6 -25 -23 -26 -24 -15 -3 6 12 16 25 21
28 6 3 10 13 10 20 0 20 -28 8 -73 -32 -41 -37 -66 -46 -27 -9 36 33 109 114
84 93 -28 -23 -37 -21 -29 4 5 16 4 20 -6 13 -15 -9 -54 -41 -78 -65 -9 -8
-27 -23 -41 -32 -83 -56 -82 -55 47 56 58 49 97 96 88 105 -4 4 -15 -3 -25
-15 -22 -28 -34 -18 -14 11 13 20 12 23 -3 23 -10 0 -30 -9 -45 -19 -35 -24
-36 -17 -3 16 l25 26 -24 6 c-13 3 -34 0 -46 -6 -24 -13 -44 -3 -20 10 8 4 29
20 45 35 29 26 29 27 5 20 -20 -6 -23 -5 -12 6 6 7 12 19 12 26 0 11 -7 10
-31 -2 -30 -16 -31 -16 -24 4 5 17 3 20 -12 14 -13 -4 -9 3 11 25 16 18 27 35
23 38 -4 4 -2 13 4 21 16 18 4 16 -29 -4 l-27 -18 21 30 c36 53 39 59 21 52
-9 -3 -19 -1 -23 6 -4 7 -4 9 1 5 4 -4 16 4 27 17 14 18 20 44 22 92 2 38 7
69 11 70 18 3 25 34 19 92 -5 46 -11 62 -25 66 -11 4 -16 12 -12 21 3 7 0 14
-6 14 -6 0 -11 11 -11 25 0 18 -5 25 -18 25 -10 0 -25 12 -33 28 -8 15 -23 33
-34 41 -11 8 -39 34 -62 57 -52 54 -112 83 -178 87 -30 2 -78 35 -69 48 2 4
-10 12 -28 18 -40 14 -98 58 -98 75 0 18 -35 48 -45 39 -4 -5 -5 -3 -1 4 4 7
-2 17 -15 23 -15 9 -18 15 -10 23 20 20 12 51 -24 91 -37 42 -43 52 -23 40 7
-4 1 7 -11 25 -13 18 -24 42 -25 52 -1 10 -14 32 -29 49 -16 16 -26 34 -23 39
4 5 2 12 -4 16 -5 3 -15 16 -21 28 -8 16 -1 12 26 -13 23 -21 36 -28 32 -17
-6 15 -3 16 12 7 16 -8 18 -7 14 10 -3 11 -9 20 -14 20 -5 0 -9 9 -9 19 0 13
5 18 18 15 9 -3 37 4 61 14 37 17 40 21 23 26 -11 4 -33 4 -49 1 -22 -4 -24
-3 -8 4 19 8 19 9 -5 13 -21 5 -20 5 8 7 18 0 31 5 28 9 -3 5 18 7 47 5 l52
-3 -59 28 c-50 24 -56 30 -38 34 12 4 48 3 80 -2 31 -4 62 -4 68 1 6 5 24 3
43 -4 28 -10 34 -10 41 4 8 13 20 14 77 7 38 -4 81 -4 98 1 19 6 23 10 11 10
-26 1 -12 14 19 17 16 2 23 -1 19 -8 -4 -7 -2 -8 4 -4 14 8 62 -21 62 -38 0
-13 14 -15 110 -16 36 -1 92 -8 125 -16 33 -7 75 -14 93 -14 18 0 31 -4 28 -9
-3 -4 7 -9 22 -9 15 -1 47 -3 72 -5 45 -4 118 21 148 50 7 7 17 13 22 13 22 0
42 65 42 136 1 41 3 72 6 69 3 -2 11 3 18 13 10 12 13 13 14 3 0 -9 9 -4 25
13 23 25 25 25 35 7 5 -11 10 -27 10 -35 0 -11 7 -9 27 10 14 13 31 23 37 21
6 -3 22 5 35 17 13 11 21 15 17 9 -13 -23 4 -14 29 15 13 15 25 32 25 37 0 6
9 21 20 35 16 20 19 21 13 5 -4 -11 -16 -35 -26 -53 -11 -18 -17 -36 -13 -39
3 -4 6 -2 6 4 0 16 74 87 78 75 2 -6 10 -8 18 -5 8 3 14 0 14 -6 0 -24 21 -9
27 19 7 39 19 46 33 19 11 -20 12 -20 36 12 20 27 24 29 25 13 0 -16 2 -15 11
6 7 16 13 155 15 395 4 370 2 399 -32 490 -6 17 -5 17 5 5 9 -12 10 7 5 85 -3
54 -4 97 -1 94 3 -2 10 -54 16 -114 14 -137 18 -149 100 -320 37 -77 75 -155
83 -174 14 -33 15 -33 22 -10 51 175 199 433 334 581 43 48 131 201 131 229 0
6 -9 9 -19 6 -13 -3 -21 1 -24 15 -3 11 -10 17 -15 14 -6 -3 -12 0 -15 6 -3
10 -7 10 -20 -1 -12 -9 -17 -10 -17 -2 0 8 -11 10 -34 6 -19 -4 -43 -2 -54 4
-15 8 -23 8 -27 0 -4 -6 -13 -8 -21 -5 -7 3 -16 1 -19 -4 -10 -16 -25 -12 -25
6 0 14 -3 14 -15 4 -9 -7 -18 -10 -21 -7 -3 3 -18 1 -34 -3 -23 -7 -28 -5 -23
6 3 8 1 14 -5 14 -6 0 -13 -6 -15 -12 -3 -8 -6 -5 -6 6 -1 17 -2 18 -27 1 -22
-14 -28 -15 -35 -4 -7 11 -12 12 -27 2 -14 -8 -22 -9 -30 -1 -7 7 -16 8 -24 1
-7 -5 -24 -10 -37 -11 -13 0 -27 -6 -31 -12 -5 -7 -10 -3 -13 11 -5 18 -9 21
-18 12 -6 -6 -18 -9 -25 -6 -8 3 -14 1 -14 -4 0 -4 -35 -8 -77 -8 -43 0 -89
-5 -102 -12 -18 -9 -29 -9 -38 -1 -9 8 -13 7 -13 -2 0 -10 -3 -10 -15 0 -10 9
-15 9 -15 1 0 -6 -17 -11 -38 -11 -21 0 -43 -5 -50 -12 -8 -8 -15 -8 -26 1
-11 10 -17 8 -28 -8 -19 -27 -28 -17 -28 28 l0 36 -19 -24 c-12 -16 -21 -20
-25 -12 -4 6 -15 11 -25 11 -10 0 -24 7 -31 15 -7 8 -22 15 -34 15 -12 0 -30
6 -41 13 -11 8 -46 21 -77 31 -32 10 -58 22 -58 26 0 5 -27 22 -60 39 -38 19
-60 26 -60 18 0 -6 -8 2 -19 18 -25 41 -121 127 -203 181 -37 24 -70 44 -74
44 -4 0 -50 21 -102 46 -105 50 -133 60 -272 98 -212 57 -358 85 -455 88 -44
2 -83 6 -86 11 -3 4 -7 5 -10 3z m1286 -566 c23 0 35 -33 18 -49 -13 -12 -14
-11 -8 7 5 16 3 20 -8 17 -8 -4 -18 5 -25 20 -15 32 -15 47 -1 23 5 -10 16
-18 24 -18z m785 -187 c0 -20 -3 -33 -7 -29 -11 11 -13 77 -2 71 5 -4 9 -22 9
-42z m7 -90 c-3 -10 -5 -2 -5 17 0 19 2 27 5 18 2 -10 2 -26 0 -35z m-20 -145
c-3 -8 -6 -5 -6 6 -1 11 2 17 5 13 3 -3 4 -12 1 -19z m-1063 -133 c8 -8 19
-15 25 -15 6 0 11 -4 11 -10 0 -14 -11 -12 -34 5 -11 8 -28 15 -38 15 -10 0
-18 5 -18 10 0 15 37 12 54 -5z m126 0 c7 -8 8 -15 2 -15 -5 0 -15 7 -22 15
-7 8 -8 15 -2 15 5 0 15 -7 22 -15z m-3 -51 c-3 -3 -12 -4 -19 -1 -8 3 -5 6 6
6 11 1 17 -2 13 -5z m-42 -24 c3 -6 -1 -7 -9 -4 -18 7 -21 14 -7 14 6 0 13 -4
16 -10z m25 -50 c0 -5 -2 -10 -4 -10 -3 0 -8 5 -11 10 -3 6 -1 10 4 10 6 0 11
-4 11 -10z m365 -270 c4 -6 -5 -10 -20 -10 -15 0 -24 4 -20 10 3 6 12 10 20
10 8 0 17 -4 20 -10z m632 -12 c-3 -8 -6 -5 -6 6 -1 11 2 17 5 13 3 -3 4 -12
1 -19z m-1682 -258 c21 -22 37 -40 34 -40 -3 0 -23 18 -44 40 -21 22 -37 40
-34 40 3 0 23 -18 44 -40z m-109 -36 c51 -21 166 -85 161 -90 -2 -2 -43 16
-91 41 -48 25 -93 45 -101 45 -8 0 -15 5 -15 10 0 13 1 13 46 -6z m244 -71 c0
-7 -39 17 -46 28 -3 6 5 3 20 -6 14 -10 26 -19 26 -22z m-1 -29 c14 -12 -19
-1 -35 12 -18 14 -18 14 6 3 14 -6 27 -13 29 -15z m-23 -20 c19 -15 19 -15 -1
-6 -11 5 -27 12 -35 15 -13 5 -13 6 1 6 8 1 24 -6 35 -15z m1424 -24 c0 -5 -8
-10 -17 -10 -15 0 -16 2 -3 10 19 12 20 12 20 0z m-1443 -266 c-3 -3 -12 -4
-19 -1 -8 3 -5 6 6 6 11 1 17 -2 13 -5z m150 -40 c-3 -3 -12 -4 -19 -1 -8 3
-5 6 6 6 11 1 17 -2 13 -5z m-277 -526 c0 -6 -6 -5 -15 2 -8 7 -15 14 -15 16
0 2 7 1 15 -2 8 -4 15 -11 15 -16z m-470 -66 c25 -4 -36 -7 -140 -8 -207 0
-344 -19 -594 -80 -76 -19 -141 -33 -143 -30 -12 11 402 99 562 119 53 7 268
6 315 -1z m165 -34 c7 -7 3 -8 -11 -4 -12 4 -42 11 -65 16 -43 9 -42 9 11 4
30 -3 60 -10 65 -16z m-1070 -98 c-11 -5 -27 -9 -35 -9 -9 0 -8 4 5 9 11 5 27
9 35 9 9 0 8 -4 -5 -9z m1013 -7 c-10 -2 -26 -2 -35 0 -10 3 -2 5 17 5 19 0
27 -2 18 -5z m917 -353 c3 -5 -3 -10 -15 -10 -12 0 -18 5 -15 10 3 6 10 10 15
10 5 0 12 -4 15 -10z m-429 -327 c-3 -8 1 -25 10 -38 17 -26 12 -45 -13 -45
-12 0 -13 -3 -4 -13 6 -8 8 -17 4 -20 -10 -11 -52 45 -45 61 3 9 1 13 -5 9 -6
-4 -13 3 -16 14 -7 24 6 65 19 62 5 -2 10 2 10 7 3 24 6 24 25 1 11 -13 17
-31 15 -38z m28 -139 c8 -21 8 -24 -3 -24 -5 0 -11 9 -14 20 -6 24 8 27 17 4z
m-4 -978 c0 -3 -4 -8 -10 -11 -5 -3 -10 -1 -10 4 0 6 5 11 10 11 6 0 10 -2 10
-4z m-50 -55 c0 -5 -7 -12 -16 -15 -14 -5 -15 -4 -4 9 14 17 20 19 20 6z"/>
<path d="M7110 8147 c0 -4 5 -5 10 -2 6 3 10 1 10 -4 0 -10 -38 -16 -64 -12
-5 1 -32 -3 -60 -9 -28 -5 -74 -11 -103 -12 -29 -1 -50 -4 -48 -6 11 -11 -28
-32 -60 -32 -29 0 -44 -7 -68 -34 -90 -98 -102 -120 -62 -122 14 -1 25 2 25 8
0 5 3 7 8 4 11 -7 39 17 43 38 2 11 11 21 19 22 8 2 40 12 70 23 30 11 63 20
73 21 9 0 17 4 17 10 0 5 7 7 15 4 8 -4 21 -1 29 5 7 6 16 8 19 4 4 -3 12 -1
19 4 51 39 343 65 364 32 7 -13 58 -11 71 2 6 6 41 9 87 7 42 -2 76 1 76 5 0
5 15 -2 33 -15 19 -14 48 -24 72 -25 95 -3 241 -31 179 -34 -14 0 -11 -4 11
-14 17 -8 40 -11 51 -8 12 2 25 0 28 -6 4 -6 2 -11 -4 -11 -28 0 4 -19 43 -25
55 -8 104 -31 145 -66 44 -39 91 -62 113 -56 11 3 17 1 13 -4 -3 -5 2 -9 10
-9 9 0 16 5 16 10 0 6 5 10 11 10 6 0 8 -8 5 -18 -5 -13 7 -26 48 -50 29 -18
75 -55 101 -83 25 -27 53 -50 61 -50 8 -1 20 -2 27 -3 6 -1 22 -13 35 -28 12
-15 31 -26 41 -25 18 1 18 2 2 24 -9 12 -19 23 -23 23 -4 0 -5 7 -2 15 4 11
-5 20 -30 30 -20 9 -34 20 -31 25 3 5 1 11 -4 14 -5 4 -11 -2 -13 -11 -3 -13
-7 -10 -18 15 -9 18 -22 32 -32 32 -10 0 -17 5 -15 12 1 6 -7 14 -17 16 -11 2
-28 15 -38 28 -10 13 -25 21 -32 18 -7 -3 -27 6 -44 20 -16 15 -35 26 -40 26
-6 0 -18 10 -27 23 -15 21 -17 21 -30 4 -7 -10 -16 -14 -19 -8 -3 5 0 11 6 14
7 2 -3 12 -22 22 -19 10 -38 23 -42 29 -6 8 -8 8 -8 -1 0 -8 -6 -8 -24 0 -16
8 -21 14 -13 19 7 5 1 8 -15 8 -15 0 -34 7 -43 17 -12 11 -19 13 -24 5 -5 -8
-15 -6 -35 8 -16 10 -35 16 -42 13 -8 -3 -14 0 -14 7 0 7 -7 10 -15 6 -8 -3
-15 -1 -15 3 0 5 -7 12 -16 15 -8 3 -12 2 -9 -4 3 -6 2 -10 -3 -10 -6 0 -12 6
-15 14 -4 9 -14 12 -28 9 -15 -4 -20 -3 -15 5 5 8 -4 12 -26 14 -51 2 -56 3
-64 11 -4 4 -15 7 -23 7 -9 0 -33 9 -54 20 -20 11 -45 20 -54 19 -16 0 -15 -2
2 -9 20 -9 20 -9 0 -9 -11 -1 -29 5 -40 12 -14 10 -55 13 -145 11 -69 -1 -125
-2 -125 -3 0 -1 -27 -3 -59 -6 -33 -2 -55 -1 -49 3 6 4 -11 7 -38 7 -27 0 -49
-3 -49 -8z m1489 -476 c10 -7 7 -9 -12 -8 -14 1 -23 5 -20 10 6 9 15 9 32 -2z"/>
<path d="M6669 8035 c-4 -3 -17 -8 -30 -10 -13 -3 -33 -9 -44 -14 -11 -5 -28
-12 -38 -15 -10 -3 -16 -10 -13 -15 3 -5 -14 -12 -39 -15 -26 -4 -49 -14 -55
-24 -7 -13 -12 -14 -18 -4 -6 9 -14 6 -32 -13 -13 -14 -29 -25 -35 -25 -7 0
-20 -9 -30 -20 -9 -10 -20 -19 -24 -18 -24 3 -41 -4 -41 -18 0 -8 -13 -20 -30
-25 -16 -6 -30 -17 -30 -24 0 -6 -19 -24 -43 -39 -48 -31 -73 -69 -86 -136 -5
-25 -19 -92 -30 -149 -23 -114 -47 -189 -97 -301 -28 -63 -30 -71 -11 -49 12
14 29 36 37 49 16 25 130 172 139 180 10 9 126 153 149 187 23 33 31 60 8 30
-9 -11 -23 -16 -45 -14 -38 5 -47 12 -33 30 7 8 9 17 5 20 -3 4 -2 7 4 7 5 0
23 11 38 24 15 13 34 22 40 20 7 -3 15 6 19 22 4 14 10 24 13 21 9 -10 63 53
63 74 0 12 15 26 39 39 22 11 43 24 46 30 4 6 11 8 16 5 5 -4 9 -1 9 4 0 6 6
11 14 11 8 0 16 7 20 15 3 8 14 15 25 15 11 0 33 11 48 24 37 31 86 101 81
116 -2 6 -6 9 -9 5z"/>
<path d="M7140 7751 c0 -5 10 -11 22 -13 17 -2 7 -11 -45 -37 -37 -19 -67 -39
-67 -45 0 -6 -8 1 -17 14 -10 14 -17 28 -15 33 5 18 -56 10 -88 -12 -14 -10
-35 -18 -48 -19 -12 0 -34 -10 -48 -21 -15 -12 -35 -21 -46 -21 -11 0 -18 -5
-15 -12 2 -7 14 -12 26 -11 18 2 20 1 9 -11 -8 -9 -17 -11 -25 -5 -7 7 -13 5
-16 -3 -4 -10 -6 -10 -6 0 -2 21 -19 13 -24 -10 -4 -22 -4 -23 -6 -1 -1 16 -6
20 -22 16 -16 -5 -20 -2 -17 13 2 14 -3 19 -25 19 -20 1 -26 -3 -22 -15 2 -8
0 -22 -5 -30 -8 -13 -10 -12 -10 3 0 9 -5 17 -11 17 -8 0 -7 5 1 15 17 20 7
29 -18 16 -13 -7 -22 -7 -30 1 -9 9 -12 8 -12 -5 0 -9 6 -17 13 -17 6 -1 2 -9
-10 -19 -13 -11 -23 -24 -23 -31 0 -6 -5 -8 -10 -5 -7 4 -7 12 0 25 8 15 6 18
-14 16 -12 -2 -28 -6 -34 -10 -7 -4 -17 -4 -24 0 -8 5 -6 10 8 16 14 6 9 7
-16 4 -23 -2 -39 2 -48 13 -11 14 -12 13 -7 -7 4 -15 1 -24 -9 -28 -9 -3 -16
-12 -16 -20 0 -8 -4 -14 -10 -14 -5 0 -10 8 -10 17 0 23 -43 -20 -168 -167
-163 -193 -210 -257 -312 -430 -110 -187 -222 -461 -218 -532 2 -21 6 -38 11
-38 4 0 7 6 7 13 0 17 60 68 71 61 5 -3 9 2 9 10 0 9 8 24 18 34 9 9 22 28 29
42 l12 25 0 -26 c1 -20 6 -25 22 -24 12 1 26 10 31 19 7 13 12 15 18 7 5 -8
13 -3 25 16 46 70 222 277 310 366 54 53 132 123 174 154 42 31 81 61 86 67 6
6 23 17 38 24 27 11 33 40 8 34 -12 -2 -6 38 10 68 5 10 1 18 -12 25 -17 10
-18 13 -4 30 12 17 14 17 9 3 -4 -11 -1 -18 6 -18 7 0 19 8 27 18 12 15 13 14
8 -15 -5 -25 -3 -33 8 -33 9 0 18 6 20 13 3 6 6 -1 6 -16 1 -27 3 -28 32 -22
24 5 30 4 24 -5 -6 -10 -1 -11 21 -6 16 4 63 14 104 22 68 13 78 18 124 65 58
60 124 103 226 148 41 18 84 37 95 41 11 5 59 20 106 34 48 13 96 29 108 35
16 9 21 9 21 -1 0 -16 -31 -29 -140 -58 -151 -40 -344 -143 -418 -224 l-23
-24 58 -12 c32 -6 73 -18 91 -26 24 -11 48 -13 90 -9 42 6 54 4 46 -4 -15 -16
-111 -26 -126 -13 -7 6 -48 17 -91 25 l-79 15 -26 -29 c-14 -16 -49 -41 -79
-54 -29 -14 -53 -30 -53 -36 0 -5 12 -15 28 -22 32 -14 43 -27 37 -44 -2 -7
-1 -22 3 -33 7 -20 15 -17 148 49 77 38 162 76 189 85 28 9 79 28 115 41 36
13 112 38 170 55 229 70 266 82 303 97 20 9 37 21 37 26 0 4 3 6 8 3 4 -2 15
2 25 9 18 13 17 14 -2 20 -12 3 -21 13 -21 20 0 8 -5 17 -11 21 -8 5 -10 -3
-7 -25 2 -17 1 -31 -4 -31 -4 0 -8 9 -8 21 0 15 -5 19 -15 15 -8 -3 -15 -2
-15 3 0 5 -8 8 -17 7 -12 0 -19 7 -21 22 -2 13 -14 27 -27 32 -13 5 -26 14
-31 21 -4 8 -3 10 4 5 7 -4 12 -1 12 8 0 10 -9 16 -24 16 -14 0 -27 4 -30 9
-3 4 -19 11 -34 14 -19 4 -31 14 -35 28 -5 17 -11 21 -33 16 -34 -6 -84 10
-106 34 -20 23 -47 27 -28 4 8 -9 9 -15 2 -15 -6 0 -14 5 -17 10 -3 6 -15 10
-25 10 -10 0 -23 6 -27 14 -13 22 -51 38 -56 23 -3 -6 -6 -2 -6 11 -1 17 -7
22 -26 22 -14 0 -25 -4 -25 -9z m-144 -60 c-4 -5 0 -12 6 -15 10 -5 10 -7 1
-12 -7 -3 -13 -12 -13 -20 0 -8 -4 -14 -10 -14 -5 0 -10 5 -10 10 0 6 -7 10
-15 10 -17 0 -18 2 -9 24 3 9 10 14 14 11 5 -3 11 -1 15 5 3 5 11 10 16 10 6
0 8 -4 5 -9z m34 -49 c0 -13 -12 -22 -22 -16 -10 6 -1 24 13 24 5 0 9 -4 9 -8z
m-90 -22 c0 -5 -4 -10 -9 -10 -6 0 -13 5 -16 10 -3 6 1 10 9 10 9 0 16 -4 16
-10z m-500 -50 c17 -11 16 -11 -22 -14 -17 -1 -28 3 -28 11 0 15 29 17 50 3z
m10 -76 c0 -8 -4 -12 -10 -9 -5 3 -10 10 -10 16 0 5 5 9 10 9 6 0 10 -7 10
-16z m70 -94 c0 -5 -4 -10 -10 -10 -5 0 -10 5 -10 10 0 6 5 10 10 10 6 0 10
-4 10 -10z"/>
<path d="M6830 7700 c0 -5 5 -10 10 -10 6 0 10 5 10 10 0 6 -4 10 -10 10 -5 0
-10 -4 -10 -10z"/>
<path d="M7040 7700 c0 -5 6 -10 14 -10 8 0 18 5 21 10 3 6 -3 10 -14 10 -12
0 -21 -4 -21 -10z"/>
<path d="M7858 7692 c-10 -2 -18 -8 -18 -13 0 -13 27 -11 35 2 9 13 4 16 -17
11z"/>
<path d="M7895 7678 c-6 -13 -16 -22 -23 -20 -17 3 -15 -23 3 -38 8 -7 12 -16
9 -21 -11 -18 12 -8 26 11 8 11 24 21 35 21 14 1 15 3 4 6 -9 2 -22 17 -30 34
-14 30 -14 30 -24 7z m25 -33 c0 -9 -9 -15 -21 -15 -18 0 -19 2 -9 15 7 8 16
15 21 15 5 0 9 -7 9 -15z"/>
<path d="M6051 7657 c0 -10 -6 -17 -13 -15 -15 5 -52 -37 -66 -77 -10 -30 -10
-29 -11 15 -1 33 -4 41 -12 33 -9 -9 -17 -8 -33 2 -21 14 -24 12 -56 -28 -19
-23 -52 -60 -72 -82 -73 -81 -209 -449 -286 -775 -45 -190 -63 -299 -53 -317
8 -14 10 -15 11 -3 0 13 1 13 10 0 6 -10 10 -11 10 -2 0 6 5 12 10 12 6 0 10
-10 10 -21 0 -18 2 -19 15 -9 13 11 14 10 9 -5 -5 -12 -4 -16 3 -12 6 4 13 1
16 -5 4 -13 25 29 104 212 55 129 141 306 226 468 86 162 112 227 142 346 33
129 31 157 -3 76 -29 -67 -106 -207 -123 -225 -6 -5 12 33 40 85 73 138 133
288 128 319 -2 14 -5 18 -6 8z m-96 -166 c-4 -17 -10 -33 -14 -36 -5 -2 -3 13
2 35 13 46 22 46 12 1z m-24 -88 c-12 -20 -14 -14 -5 12 4 9 9 14 11 11 3 -2
0 -13 -6 -23z"/>
<path d="M5817 7589 c-33 -58 -30 -76 4 -27 13 18 27 35 31 36 10 5 10 42 1
42 -5 0 -21 -23 -36 -51z"/>
<path d="M7533 7613 c9 -2 25 -2 35 0 9 3 1 5 -18 5 -19 0 -27 -2 -17 -5z"/>
<path d="M7990 7554 c0 -13 18 -39 24 -34 2 3 -2 14 -10 24 -8 11 -14 16 -14
10z"/>
<path d="M7656 7541 c-4 -7 -5 -15 -2 -18 9 -9 19 4 14 18 -4 11 -6 11 -12 0z"/>
<path d="M7886 7514 c4 -10 9 -22 11 -26 5 -10 53 13 53 25 0 5 -7 4 -15 -3
-13 -10 -19 -9 -36 6 -19 17 -20 17 -13 -2z"/>
<path d="M7951 7461 c-9 -6 -11 -18 -6 -40 4 -18 11 -28 17 -25 6 4 8 -2 3
-16 -5 -15 -4 -20 4 -16 7 5 11 -4 11 -23 0 -17 4 -31 9 -31 5 0 7 8 5 18 -2
9 0 31 6 47 l10 30 -3 -36 c-2 -22 2 -36 8 -35 5 2 7 1 3 -1 -5 -3 -8 -13 -8
-23 0 -18 -33 -36 -57 -32 -7 2 -10 -3 -7 -12 5 -14 31 -12 44 4 16 18 60 39
65 30 9 -15 27 -1 21 16 -3 8 -1 14 4 14 15 0 12 -27 -5 -44 -8 -8 -15 -19
-15 -25 0 -5 -10 -12 -22 -14 -17 -3 -14 -5 10 -6 24 -1 32 3 33 17 0 14 2 13
11 -5 8 -17 7 -26 -7 -39 -14 -14 -18 -15 -25 -3 -5 7 -11 11 -13 9 -2 -3 -14
-18 -26 -35 -25 -32 -29 -34 -42 -13 -6 9 -9 9 -9 1 0 -7 9 -17 20 -23 11 -6
20 -17 20 -25 0 -7 6 -15 13 -18 9 -3 9 -11 -3 -33 -18 -34 -57 -44 -67 -17
-4 10 -11 21 -16 24 -5 4 -10 19 -11 35 -2 16 -8 39 -15 52 -6 12 -9 27 -6 32
4 6 1 9 -7 8 -7 -2 -13 5 -13 14 0 9 -4 20 -8 24 -4 4 -7 16 -7 26 0 11 -4 17
-9 13 -5 -3 -12 3 -16 14 -3 10 -15 21 -26 24 -16 4 -19 11 -14 26 5 15 2 21
-9 21 -9 0 -16 -4 -16 -10 0 -15 -17 -12 -23 4 -4 10 -1 13 7 10 7 -3 19 3 27
12 13 16 11 17 -16 10 -16 -4 -37 -14 -46 -22 -9 -8 -20 -14 -25 -12 -10 2
-46 -8 -79 -22 -11 -4 -76 -25 -145 -45 -211 -61 -409 -135 -541 -201 -126
-62 -175 -104 -108 -90 29 6 31 4 25 -18 -4 -16 0 -30 10 -41 13 -12 14 -19 4
-30 -10 -13 -8 -15 15 -15 27 0 28 0 10 -20 -14 -16 -15 -20 -4 -20 8 0 20 5
27 12 9 9 12 9 12 1 0 -7 -4 -15 -10 -18 -16 -10 -12 -35 6 -35 10 0 12 -5 7
-12 -24 -39 -2 -88 41 -89 l31 0 -25 -12 c-35 -15 -36 -17 -20 -27 11 -7 11
-11 1 -24 -11 -13 -9 -16 13 -22 16 -4 33 -1 43 7 10 8 14 9 10 2 -4 -7 0 -16
9 -21 14 -8 12 -9 -10 -9 -40 0 -43 -10 -11 -43 16 -17 23 -30 16 -30 -11 0
-11 -3 -1 -15 10 -12 9 -16 -4 -21 -21 -8 -21 -24 0 -24 10 0 14 -6 10 -15 -3
-9 0 -15 9 -15 23 0 18 -17 -7 -25 -17 -5 -19 -8 -8 -11 9 -3 21 -13 28 -24
10 -17 9 -20 -14 -26 -19 -5 -22 -9 -12 -15 11 -7 10 -11 -2 -19 -13 -8 -12
-10 3 -10 23 0 22 -8 -5 -34 -23 -22 -33 -56 -17 -56 16 0 9 -18 -8 -23 -17
-4 -17 -5 0 -6 9 0 17 -5 17 -10 0 -5 16 -15 36 -21 34 -12 38 -11 55 11 10
13 19 30 19 37 0 6 4 12 9 12 6 0 6 -12 0 -32 -5 -17 -6 -34 -3 -37 9 -9 24
23 24 52 0 26 20 40 20 15 1 -8 6 -6 14 5 14 18 36 23 36 7 0 -5 7 -7 15 -4
11 5 15 -1 15 -22 1 -28 1 -28 16 -9 10 13 18 16 21 8 2 -6 18 3 38 23 33 33
53 45 40 24 -11 -17 14 -38 37 -32 14 3 19 1 14 -6 -4 -8 0 -12 12 -12 19 0
62 42 62 60 0 6 5 10 10 10 6 0 10 -12 10 -26 0 -17 -4 -23 -12 -18 -9 5 -10
4 -3 -4 18 -19 86 -18 97 1 5 10 14 14 20 11 6 -4 26 -8 45 -10 30 -2 36 2 55
39 18 36 22 39 27 22 6 -21 61 -35 61 -15 0 6 12 8 27 6 15 -3 34 0 42 7 12 9
13 9 7 0 -9 -16 6 -17 21 -2 8 8 13 7 18 -2 6 -8 4 -10 -5 -4 -9 5 -11 4 -6
-4 5 -8 12 -9 19 -2 7 5 23 9 37 9 14 -1 34 3 44 7 16 7 18 5 13 -9 -5 -13 1
-11 26 8 20 16 37 22 46 17 9 -6 6 -13 -13 -28 -14 -11 -23 -23 -20 -26 7 -7
44 4 44 13 0 8 39 23 53 21 5 -1 11 8 14 19 3 11 9 20 14 20 18 0 8 -20 -23
-51 -29 -28 -30 -31 -10 -24 19 5 23 3 20 -12 -2 -11 2 -17 11 -15 19 4 51 -8
51 -19 0 -6 -5 -7 -10 -4 -6 4 -24 -6 -40 -22 -35 -33 -40 -51 -8 -29 39 27
44 17 8 -14 -38 -32 -68 -38 -76 -15 -5 12 -10 12 -32 -3 -25 -16 -26 -16 -19
1 5 13 3 16 -6 11 -11 -7 -80 -58 -99 -74 -4 -3 -14 -26 -21 -51 -13 -41 -12
-45 3 -45 11 0 16 6 12 15 -4 11 -1 13 12 8 11 -5 40 6 80 28 68 38 106 47 70
17 -11 -10 -23 -28 -26 -40 -6 -22 -6 -23 17 -8 34 22 36 21 19 -19 -8 -19
-12 -35 -10 -35 11 0 126 123 126 135 0 8 7 15 15 15 8 0 15 5 15 12 0 6 3 9
6 6 8 -8 -16 -46 -48 -80 -16 -15 -28 -36 -28 -46 0 -11 -12 -40 -26 -66 -19
-33 -31 -45 -43 -42 -16 6 -61 -47 -61 -72 0 -7 -16 -27 -35 -44 -38 -32 -75
-87 -41 -59 14 12 16 12 10 -4 -5 -13 -4 -16 4 -11 7 4 12 2 12 -3 0 -6 7 -11
15 -11 22 0 18 -31 -4 -37 -22 -6 -37 -67 -26 -103 5 -17 10 -19 21 -9 8 6 14
18 14 25 0 22 38 16 45 -6 3 -11 11 -20 18 -20 8 0 8 3 -1 12 -15 15 -16 38
-1 38 6 0 18 -18 26 -40 10 -26 22 -40 34 -40 9 0 24 -3 32 -6 9 -3 17 3 21
18 7 22 8 21 17 -9 7 -23 16 -33 29 -33 11 0 20 7 20 15 0 24 18 17 22 -7 2
-18 9 -23 31 -21 15 1 27 -3 27 -9 0 -5 6 -8 14 -5 8 3 16 2 18 -3 2 -4 12
-10 23 -12 17 -2 21 4 25 37 5 42 12 39 25 -10 10 -37 12 -45 13 -69 2 -16 5
-17 14 -8 18 18 27 15 21 -8 -4 -15 0 -20 16 -20 11 0 21 -6 21 -12 0 -7 6 -4
12 7 6 11 14 22 18 25 13 9 22 88 11 95 -6 3 -11 12 -11 18 0 7 7 3 15 -7 8
-11 15 -40 15 -66 0 -35 -5 -48 -21 -58 -29 -18 -23 -76 9 -80 25 -4 29 -20 7
-28 -8 -4 -15 -11 -15 -16 0 -6 8 -7 18 -3 31 12 81 15 87 5 4 -6 -5 -10 -20
-10 -15 0 -38 -9 -52 -20 -14 -11 -21 -20 -15 -20 6 0 13 4 16 8 6 11 106 -9
106 -21 0 -4 -4 -6 -9 -2 -10 6 -41 -21 -41 -36 0 -14 11 -11 34 9 20 17 20
17 3 -10 -21 -34 -21 -35 5 -42 18 -4 20 -8 10 -18 -19 -19 -14 -28 16 -28 33
0 61 -17 47 -27 -16 -13 -16 -33 1 -33 8 0 12 -4 9 -10 -9 -14 8 -13 23 2 9 9
12 9 12 0 0 -7 14 -10 43 -7 l42 4 -45 -11 c-25 -6 -47 -12 -48 -14 -2 -1 6
-12 18 -24 12 -12 19 -28 15 -38 -4 -13 3 -21 28 -30 18 -6 42 -18 52 -26 16
-12 17 -16 6 -30 -8 -9 -12 -18 -10 -20 2 -1 15 -10 29 -19 l24 -17 -28 0
c-22 0 -27 -4 -22 -16 3 -9 6 -27 6 -40 0 -14 6 -24 14 -24 7 0 19 -6 26 -14
6 -8 21 -17 33 -19 12 -3 -9 -5 -47 -4 -42 0 -71 -4 -73 -10 -3 -7 4 -9 16 -6
13 3 23 0 26 -9 3 -8 17 -14 33 -13 16 2 19 0 7 -2 -11 -3 -23 -10 -27 -17 -5
-8 -8 -7 -8 3 0 10 -3 11 -14 2 -10 -8 -16 -9 -21 -1 -11 18 -24 11 -27 -17
-3 -28 -28 -45 -28 -19 0 24 -19 29 -46 11 -20 -13 -52 -17 -145 -18 -97 -1
-119 -4 -114 -15 4 -10 -2 -12 -25 -7 -31 7 -42 -8 -14 -19 14 -5 14 -9 3 -23
-8 -9 -9 -14 -3 -10 7 4 26 4 43 1 25 -5 30 -10 26 -25 -5 -13 -1 -19 10 -19
9 0 13 -5 10 -10 -7 -11 -54 -3 -70 11 -11 11 -45 12 -45 2 0 -5 16 -25 35
-45 18 -21 30 -38 26 -38 -5 0 -14 7 -21 15 -7 8 -21 15 -32 15 -10 0 -21 -7
-24 -15 -4 -8 -15 -15 -26 -15 -16 0 -18 -3 -9 -14 9 -11 6 -15 -15 -20 -14
-4 -33 -4 -43 -1 -14 4 -16 0 -13 -29 2 -18 -1 -37 -7 -40 -6 -4 -11 -16 -11
-28 0 -14 -5 -18 -15 -14 -18 7 -18 -7 0 -57 13 -39 13 -39 -11 -33 -26 7 -31
-3 -13 -21 9 -9 8 -16 -4 -27 -12 -12 -13 -23 -7 -46 5 -18 5 -32 -1 -35 -18
-11 -9 -25 16 -25 14 0 25 -4 25 -10 0 -5 -13 -10 -28 -10 -45 0 -47 -13 -5
-26 l38 -12 -33 -1 c-28 -1 -36 -6 -45 -31 -6 -17 -15 -30 -19 -30 -4 0 -8 -8
-8 -17 0 -12 -8 -18 -23 -19 -23 -2 -77 -46 -77 -64 0 -15 -36 -21 -63 -11
-22 9 -25 15 -24 59 0 54 -7 72 -29 72 -19 0 -18 -29 1 -36 11 -5 13 -16 9
-48 -4 -22 -11 -47 -17 -53 -9 -13 -6 -15 23 -17 11 -1 16 -16 18 -58 3 -53 1
-58 -18 -58 -14 0 -20 -5 -18 -17 2 -14 -3 -17 -28 -15 -21 2 -37 -4 -55 -21
-47 -47 -103 -66 -138 -47 -29 15 -62 -4 -84 -47 -17 -33 -17 -37 -1 -60 21
-33 7 -45 -36 -33 -22 6 -36 6 -40 0 -3 -5 -24 -9 -46 -7 -38 2 -39 1 -39 -30
0 -22 -4 -31 -15 -30 -8 0 -27 -2 -41 -6 -23 -6 -31 -1 -55 28 -23 29 -34 35
-66 35 -21 0 -38 5 -38 10 0 6 -4 10 -10 10 -5 0 -10 -8 -10 -17 0 -18 -100
-83 -100 -66 0 4 -5 1 -10 -7 -8 -12 -10 -11 -10 8 0 21 -2 21 -22 8 -19 -12
-35 -12 -83 -4 -33 6 -66 15 -73 21 -8 6 -33 12 -55 13 -27 1 -61 12 -95 33
-29 17 -60 31 -68 31 -8 0 -27 11 -42 25 -15 14 -32 25 -38 25 -17 0 -154 147
-154 165 0 8 -4 15 -9 15 -5 0 -15 25 -21 55 -6 30 -15 57 -19 60 -5 2 -8 16
-8 31 0 14 -4 29 -9 33 -18 12 -46 72 -41 86 3 7 -1 16 -9 19 -9 3 -12 10 -9
16 3 5 -1 10 -9 10 -9 0 -16 7 -16 15 0 13 -3 13 -20 3 -16 -10 -22 -10 -32 1
-10 11 -10 14 0 18 21 8 13 23 -12 23 -13 0 -27 6 -29 13 -5 10 -11 -14 -9
-33 0 -3 -46 -5 -103 -4 -57 1 -109 -3 -117 -8 -8 -5 0 -6 23 -3 32 6 36 4 34
-14 -1 -11 -4 -24 -8 -27 -11 -11 -77 26 -77 44 0 11 -5 7 -15 -12 -8 -15 -15
-35 -15 -43 0 -8 -5 -11 -10 -8 -7 4 -7 12 0 25 13 24 13 53 0 45 -5 -3 -7
-12 -3 -20 3 -9 -1 -15 -9 -15 -9 0 -13 -11 -13 -36 l2 -36 -49 5 c-47 6 -48
6 -42 -19 5 -19 3 -23 -10 -18 -11 4 -19 -2 -26 -22 -8 -21 -13 -25 -23 -15
-9 9 -9 14 3 21 9 6 10 10 3 10 -7 0 -16 -8 -22 -17 -8 -15 -13 -16 -30 -6
-27 17 -42 16 -35 0 7 -19 -24 -42 -55 -42 -15 0 -25 -5 -24 -12 3 -15 -13
-17 -22 -3 -3 6 -16 10 -27 10 -12 0 -18 -3 -15 -7 4 -3 -1 -12 -11 -19 -14
-10 -18 -10 -23 3 -6 17 -59 25 -79 13 -9 -5 -3 -16 19 -35 37 -34 78 -108 62
-113 -16 -5 -14 -45 4 -78 22 -43 19 -51 -22 -58 -21 -3 -50 -12 -65 -20 -16
-9 -27 -10 -25 -4 1 6 -4 13 -10 15 -7 3 -13 0 -13 -6 0 -6 -11 -11 -23 -11
-40 0 -40 -14 0 -26 27 -8 31 -12 16 -13 -12 -1 -27 -10 -33 -21 -8 -15 -21
-20 -53 -20 -23 0 -59 -3 -80 -6 -32 -6 -37 -10 -31 -27 5 -16 3 -19 -10 -14
-9 4 -16 2 -16 -2 0 -5 -15 -8 -32 -7 -23 1 -35 7 -38 20 -3 11 -12 21 -20 24
-9 2 -11 0 -5 -5 10 -8 45 -129 45 -155 0 -7 -8 3 -18 22 -11 24 -25 36 -42
38 -13 1 -27 6 -30 11 -6 9 -46 8 -56 -1 -3 -4 -13 -4 -21 -1 -9 4 -16 -2 -20
-16 -3 -14 -13 -21 -29 -21 -14 0 -28 -9 -35 -22 -7 -13 -12 -24 -11 -25 7
-11 0 -23 -10 -16 -18 11 -48 14 -48 5 0 -9 -60 -47 -74 -47 -5 0 -11 -13 -13
-30 -2 -16 -7 -64 -12 -105 l-8 -75 -2 70 c-1 71 -20 130 -22 70 0 -16 -3 -24
-6 -17 -6 16 -23 6 -23 -14 0 -8 5 -12 10 -9 19 12 10 -14 -15 -41 -14 -15
-25 -21 -25 -14 0 25 -15 -1 -16 -28 -1 -15 -3 -43 -4 -62 l-2 -35 -11 32 -12
33 -58 -55 c-31 -30 -57 -62 -57 -70 0 -9 -4 -14 -9 -11 -4 3 -13 -6 -20 -20
-15 -34 -43 -28 -47 11 -2 16 2 33 9 37 7 4 8 8 2 8 -44 0 -76 -115 -71 -255
1 -38 -1 -83 -5 -100 l-8 -30 1 30 c2 140 -4 298 -11 286 -5 -7 -14 -11 -20
-7 -6 4 -13 -4 -17 -19 -4 -16 -13 -25 -26 -25 -15 0 -19 -5 -15 -19 3 -13 0
-18 -8 -15 -16 7 -32 -15 -38 -51 -3 -22 -5 -17 -7 20 l-3 50 -8 -60 c-19
-145 -31 -171 -44 -95 -4 22 -11 40 -17 40 -6 0 -8 -9 -5 -20 4 -15 0 -20 -13
-20 -15 0 -25 -12 -35 -40 -7 -20 -20 -46 -24 -50 -4 -3 -13 -16 -22 -29 -9
-15 -36 -32 -65 -42 -38 -13 -49 -21 -47 -36 1 -12 -7 -25 -23 -33 -13 -8 -34
-29 -46 -47 -13 -23 -26 -32 -35 -28 -21 8 -43 -13 -43 -41 0 -14 -8 -25 -20
-29 -11 -3 -19 -9 -19 -13 3 -23 -17 -52 -42 -63 -23 -9 -28 -16 -23 -32 4
-14 3 -17 -6 -12 -8 5 -11 3 -8 -6 5 -15 -54 -78 -90 -98 -12 -6 -22 -19 -22
-28 0 -14 -3 -14 -21 3 -22 19 -22 19 -15 -6 3 -14 3 -19 0 -12 -3 6 -10 10
-15 6 -18 -11 -8 11 18 38 29 31 24 51 -6 24 -23 -21 -37 -6 -32 36 2 23 -1
27 -16 21 -14 -5 -14 -2 4 14 13 11 20 23 16 26 -3 4 1 15 9 24 22 25 32 81
18 98 -9 11 -7 19 8 35 23 25 34 68 18 73 -7 2 -4 10 7 21 16 16 19 27 22 81
1 11 4 26 9 33 5 8 2 10 -8 6 -22 -9 -20 11 3 27 22 16 38 59 22 59 -6 0 -4 8
5 19 18 21 27 91 11 91 -6 0 -7 16 -2 43 4 23 9 51 10 62 2 11 4 20 5 20 1 0
3 10 4 22 2 13 -1 23 -6 23 -5 0 -7 4 -4 9 3 5 -5 20 -19 32 -17 18 -22 30
-18 48 4 16 2 22 -5 17 -8 -4 -10 -2 -6 8 3 9 -2 17 -16 21 -15 5 -19 12 -15
26 5 13 2 19 -10 19 -8 0 -18 7 -21 15 -4 8 -14 15 -23 15 -14 1 -13 3 3 15
18 14 19 15 2 15 -12 0 -16 5 -13 15 9 21 -7 27 -34 12 -16 -8 -24 -21 -24
-37 0 -14 -7 -31 -15 -37 -13 -11 -13 -14 0 -24 11 -7 12 -12 3 -15 -7 -3 -9
-12 -7 -19 4 -9 -3 -16 -20 -21 -22 -5 -24 -9 -15 -26 8 -15 7 -22 -7 -33 -15
-10 -16 -16 -6 -28 7 -9 9 -18 4 -21 -5 -3 -7 -18 -4 -32 3 -19 -1 -31 -14
-41 -13 -10 -16 -16 -7 -21 19 -12 9 -43 -18 -58 l-24 -13 24 -8 c21 -9 22
-11 7 -26 -16 -15 -19 -26 -32 -109 -3 -21 -11 -38 -17 -38 -7 0 -7 -4 1 -12
17 -17 15 -26 -7 -33 -21 -6 -22 -32 -1 -45 10 -6 8 -9 -6 -13 -16 -4 -17 -5
-1 -6 23 -1 22 -17 -3 -24 -15 -4 -19 -12 -17 -36 1 -17 8 -31 15 -31 17 0 15
-17 -3 -24 -8 -3 -15 -16 -15 -30 0 -14 -4 -27 -10 -31 -5 -3 -7 -12 -3 -20 3
-8 0 -15 -7 -15 -6 0 -8 -5 -4 -12 17 -27 21 -88 7 -100 -11 -9 -11 -13 -1
-19 10 -6 8 -12 -10 -24 -27 -20 -27 -66 1 -95 10 -11 13 -20 7 -20 -5 0 -10
-7 -10 -15 0 -8 -4 -15 -10 -15 -5 0 -10 -4 -10 -10 0 -5 7 -10 15 -10 20 0
19 -7 -5 -32 -21 -23 -26 -38 -11 -38 5 0 3 -13 -5 -30 -15 -30 -11 -56 7 -45
5 4 5 -5 -1 -20 -14 -36 -13 -37 11 -25 11 7 23 9 26 7 2 -3 -5 -10 -16 -16
-12 -7 -18 -17 -14 -27 3 -8 -3 -24 -12 -34 -22 -24 -14 -36 13 -21 17 9 19 8
15 -10 -3 -11 -12 -23 -19 -26 -7 -2 -10 -11 -8 -18 5 -13 -41 -97 -57 -103
-5 -2 -9 -10 -9 -19 0 -8 -20 -40 -44 -71 -24 -32 -52 -72 -62 -89 -10 -18
-22 -33 -26 -33 -4 0 -8 -5 -8 -12 0 -7 -11 -22 -25 -34 -31 -26 -69 -78 -88
-119 -8 -16 -26 -41 -41 -54 -14 -14 -26 -30 -26 -36 0 -7 -13 -30 -29 -52
-16 -23 -27 -43 -24 -46 2 -3 -5 -10 -16 -17 -12 -6 -19 -16 -15 -21 3 -6 -8
-31 -26 -55 -20 -28 -26 -44 -18 -45 7 -1 2 -4 -12 -8 -15 -5 -24 -14 -22 -23
3 -19 -54 -107 -74 -115 -8 -3 -14 -13 -14 -23 0 -10 -7 -23 -15 -30 -8 -7
-13 -16 -10 -20 3 -4 -11 -34 -30 -66 -19 -32 -35 -61 -35 -66 0 -4 -7 -8 -15
-8 -8 0 -12 -6 -9 -14 3 -8 -3 -20 -14 -27 -11 -8 -19 -17 -18 -21 0 -5 -11
-21 -26 -37 -29 -30 -36 -51 -18 -51 6 0 10 -7 10 -15 0 -8 -7 -15 -15 -15 -8
0 -19 -9 -25 -20 -11 -20 -8 -20 4225 -20 l4235 0 0 3048 c0 1676 -4 3052 -8
3058 -7 12 -77 5 -115 -11 -13 -6 -16 -4 -11 9 7 18 6 18 -56 6 -32 -6 -47 -5
-52 3 -6 9 -16 7 -38 -5 -16 -9 -30 -14 -30 -10 0 4 -35 9 -77 10 -59 1 -81
-2 -95 -15 -11 -10 -18 -12 -18 -5 0 15 -42 16 -56 2 -9 -9 -40 -16 -108 -25
-15 -2 -33 -8 -40 -15 -8 -9 -4 -10 18 -4 21 5 27 4 22 -5 -9 -14 -56 -15 -56
-1 0 14 -70 6 -79 -9 -4 -6 -35 -14 -69 -17 -34 -4 -62 -11 -62 -16 0 -6 -7
-7 -16 -4 -8 3 -22 -1 -31 -9 -15 -16 -38 -11 -28 6 4 5 2 9 -4 9 -5 0 -13 -5
-16 -10 -5 -8 -11 -8 -20 0 -9 8 -14 6 -19 -7 -6 -13 -9 -14 -15 -4 -7 10 -9
10 -14 -3 -4 -9 -14 -13 -29 -11 -12 3 -25 0 -29 -6 -4 -6 -31 -12 -60 -13
-30 -1 -64 -8 -77 -14 -12 -7 -26 -11 -31 -8 -15 10 -81 -15 -81 -29 0 -8 -4
-15 -10 -15 -5 0 -18 -8 -28 -17 -22 -21 -48 -39 -82 -56 -14 -6 -33 -20 -42
-29 -17 -17 -19 -17 -38 2 -18 18 -22 18 -60 5 -33 -12 -45 -12 -61 -2 -20 13
-25 27 -9 27 6 0 10 7 10 15 0 18 -16 20 -23 3 -3 -7 -6 0 -6 15 -1 24 -3 26
-20 17 -28 -14 -68 -12 -74 4 -4 9 0 12 13 9 10 -3 20 -1 23 4 4 5 -16 16 -44
23 -59 16 -77 34 -25 25 32 -6 36 -5 36 14 0 23 -4 24 -64 21 -32 -1 -38 1
-33 15 5 10 -1 19 -16 26 -19 8 -18 9 7 4 17 -4 35 -13 41 -22 9 -12 14 -13
19 -4 4 6 12 9 17 6 5 -4 9 -1 9 4 0 6 -8 11 -18 11 -15 0 -18 6 -14 30 4 31
0 34 -45 30 -13 -1 -23 3 -23 9 0 6 -8 11 -18 11 -10 0 -23 5 -30 12 -7 7 -12
8 -12 4 0 -4 10 -16 23 -27 19 -16 20 -20 7 -29 -8 -5 -25 -10 -38 -10 -13 0
-20 -4 -17 -10 3 -5 -2 -10 -11 -10 -10 0 -14 3 -11 7 15 14 -48 40 -87 35
-29 -3 -37 -1 -34 9 3 9 24 13 71 13 36 0 64 3 61 8 -3 4 8 27 23 50 l28 43 3
-30 c5 -39 27 -53 79 -50 27 2 43 -1 43 -8 0 -8 3 -8 11 0 20 20 0 31 -56 28
-57 -2 -74 6 -57 28 13 17 23 77 13 77 -5 0 -11 -9 -14 -21 -8 -29 -27 -14
-27 22 0 16 -4 29 -9 29 -16 0 -31 -27 -25 -44 4 -9 1 -16 -6 -16 -13 0 -10
38 5 73 6 13 4 16 -9 11 -23 -9 -20 18 3 33 15 10 21 10 25 0 3 -8 12 -4 25
12 12 13 21 18 21 12 0 -6 5 -11 10 -11 7 0 7 6 0 19 -5 11 -10 34 -10 51 0
27 3 30 20 25 14 -4 20 -2 20 9 0 21 48 56 67 49 11 -4 14 -2 9 5 -4 7 -18 12
-32 12 -30 0 -33 29 -5 54 18 16 18 20 5 51 -18 45 -18 45 12 45 21 0 25 3 19
18 -4 9 -7 24 -6 32 3 34 0 96 -5 113 -4 13 -12 17 -25 14 -10 -3 -19 0 -19 5
0 6 -7 5 -16 -3 -14 -11 -15 -9 -9 24 6 30 4 37 -9 37 -19 0 -21 11 -4 28 13
13 -4 62 -22 62 -16 0 -24 -28 -12 -43 5 -6 12 -24 16 -38 5 -21 1 -30 -19
-43 -14 -9 -25 -23 -25 -31 0 -8 -9 -15 -20 -15 -11 0 -20 7 -20 15 0 8 -4 15
-9 15 -22 0 -18 32 7 56 19 19 22 25 9 20 -10 -3 -25 0 -33 8 -16 17 -19 36
-4 36 6 0 10 4 10 9 0 5 -9 7 -19 4 -21 -5 -36 23 -25 51 5 12 2 15 -10 10
-12 -4 -16 0 -16 16 0 11 -4 19 -10 15 -6 -4 -6 -15 0 -31 7 -17 7 -23 0 -19
-6 3 -10 13 -10 21 0 20 -18 18 -23 -3 -3 -10 -5 -3 -6 15 0 17 -5 32 -11 32
-5 0 -11 -15 -11 -32 -1 -18 -3 -25 -6 -15 -2 9 -14 17 -25 17 -17 0 -18 2 -8
15 8 9 8 15 2 15 -6 0 -14 -9 -17 -21 -5 -15 -13 -19 -28 -15 -12 3 -27 0 -34
-6 -9 -7 -13 -7 -13 1 0 6 5 11 11 11 21 0 2 25 -20 26 -25 1 -61 31 -61 51 0
7 -4 13 -10 13 -5 0 -10 9 -10 20 0 16 -5 19 -23 15 -18 -5 -29 1 -48 24 -13
17 -32 31 -43 31 -12 0 -16 5 -12 15 8 22 -17 18 -32 -5 -7 -12 -17 -18 -22
-15 -6 4 -5 14 3 25 9 16 9 23 -5 37 -16 16 -18 15 -27 -8 -7 -17 -10 -19 -10
-6 -1 9 -9 26 -18 37 -10 11 -25 29 -35 39 -9 11 -14 22 -11 25 3 2 -9 3 -26
1 -23 -3 -31 0 -31 11 0 9 -14 29 -31 45 -17 16 -28 33 -24 39 8 12 4 12 -14
1z m165 -208 c-10 -10 -19 5 -10 18 6 11 8 11 12 0 2 -7 1 -15 -2 -18z m-86
-103 c0 -5 -4 -10 -10 -10 -5 0 -10 5 -10 10 0 6 5 10 10 10 6 0 10 -4 10 -10z
m420 -150 c0 -5 -5 -10 -11 -10 -5 0 -7 5 -4 10 3 6 8 10 11 10 2 0 4 -4 4
-10z m296 -237 c-10 -10 -19 5 -10 18 6 11 8 11 12 0 2 -7 1 -15 -2 -18z m48
5 c18 -18 28 -60 13 -55 -7 2 -11 11 -9 21 2 9 -4 16 -13 16 -8 0 -15 7 -15
15 0 18 7 19 24 3z m-1257 -453 c-15 -16 -19 -13 -11 9 3 9 10 13 15 10 5 -3
3 -11 -4 -19z m1128 6 c17 -3 30 -13 30 -21 0 -8 7 -20 15 -27 16 -13 14 -14
-35 -26 -11 -3 -29 -8 -40 -13 -17 -7 -18 -6 -7 8 10 13 10 17 -3 22 -8 3 -15
1 -15 -4 0 -6 -4 -10 -10 -10 -5 0 -10 9 -10 19 0 11 -4 22 -10 26 -5 3 -7 12
-3 20 5 16 35 17 88 6z m-965 -10 c0 -6 -4 -13 -10 -16 -5 -3 -10 1 -10 9 0 9
5 16 10 16 6 0 10 -4 10 -9z m866 -68 c-10 -10 -19 5 -10 18 6 11 8 11 12 0 2
-7 1 -15 -2 -18z m-26 -13 c0 -5 -4 -10 -10 -10 -5 0 -10 5 -10 10 0 6 5 10
10 10 6 0 10 -4 10 -10z m-85 -13 c-27 -18 -55 -28 -55 -19 0 9 39 29 60 31
10 1 8 -3 -5 -12z m-195 -37 c0 -5 -2 -10 -4 -10 -3 0 -8 5 -11 10 -3 6 -1 10
4 10 6 0 11 -4 11 -10z m86 -24 c8 -8 10 -17 5 -20 -5 -4 -11 -1 -13 5 -2 5
-11 7 -21 4 -9 -4 -14 -11 -11 -16 3 -5 10 -7 15 -4 14 9 11 -34 -5 -63 -29
-53 -48 -103 -42 -109 3 -3 -2 -13 -12 -22 -10 -9 -28 -29 -40 -45 -12 -16
-22 -24 -22 -19 0 5 7 18 15 29 8 10 15 25 15 32 0 8 9 27 20 43 12 15 29 54
39 85 l19 56 -36 -5 c-21 -3 -31 -3 -24 0 6 2 9 10 6 15 -4 6 -3 8 3 5 6 -4
21 5 33 18 27 29 36 30 56 11z m384 -51 c0 -8 -7 -15 -15 -15 -13 0 -14 3 -3
15 16 18 18 18 18 0z m-130 -40 c0 -10 -10 -15 -30 -15 -16 0 -30 5 -30 11 0
6 9 9 20 6 11 -3 23 -1 26 4 8 13 14 11 14 -6z m-430 -20 c-7 -9 -15 -13 -18
-10 -3 2 1 11 8 20 7 9 15 13 18 10 3 -2 -1 -11 -8 -20z m330 -18 c-14 -6 -28
-16 -31 -21 -4 -4 -12 -5 -19 -1 -14 9 25 33 55 33 17 1 16 -1 -5 -11z m-136
-14 c-60 -54 -64 -56 -64 -42 0 8 17 24 38 36 45 27 52 28 26 6z m326 3 c-6
-8 -18 -12 -26 -9 -8 3 -14 0 -14 -7 0 -6 -4 -8 -10 -5 -24 15 -9 35 26 35 31
0 35 -2 24 -14z m-696 -11 c-4 -8 -11 -15 -16 -15 -6 0 -5 6 2 15 7 8 14 15
16 15 2 0 1 -7 -2 -15z m675 -15 c22 6 31 5 35 -6 5 -12 -4 -15 -42 -13 -26 1
-55 6 -65 11 -13 6 -34 2 -74 -16 -30 -14 -60 -26 -67 -26 -12 0 34 39 47 40
5 0 23 6 40 14 49 22 71 23 85 5 9 -14 19 -16 41 -9z m-254 10 c-3 -5 -14 -10
-23 -10 -15 0 -15 2 -2 10 20 13 33 13 25 0z m380 -110 c4 -6 -14 -10 -44 -10
-28 0 -51 4 -51 8 0 11 88 13 95 2z m797 -33 c9 -3 19 -2 22 4 2 5 3 4 2 -3
-3 -15 -53 -21 -61 -7 -8 12 6 34 14 22 3 -5 14 -12 23 -16z m-55 -29 c-3 -8
-6 -5 -6 6 -1 11 2 17 5 13 3 -3 4 -12 1 -19z m123 -2 c0 -2 -7 -7 -16 -10 -8
-3 -12 -2 -9 4 6 10 25 14 25 6z m-202 -67 c-20 -13 -28 -11 -22 5 3 8 12 12
21 9 12 -5 12 -7 1 -14z m42 -149 c-8 -5 -24 -10 -35 -10 -17 0 -17 2 -5 10 8
5 24 10 35 10 17 0 17 -2 5 -10z m-1433 -22 c-3 -8 -6 -5 -6 6 -1 11 2 17 5
13 3 -3 4 -12 1 -19z m1503 -37 c0 -12 -42 -19 -66 -10 -16 5 -14 7 11 11 51
8 55 8 55 -1z m-100 -5 c0 -11 -19 -15 -25 -6 -3 5 1 10 9 10 9 0 16 -2 16 -4z
m211 -21 l34 -16 -35 6 c-24 4 -31 3 -21 -3 19 -14 4 -34 -17 -23 -19 9 -58 8
-84 -4 -11 -4 -18 -3 -18 3 0 11 49 37 85 45 11 3 21 5 21 6 1 0 17 -6 35 -14z
m487 -232 c-10 -2 -28 -2 -40 0 -13 2 -5 4 17 4 22 1 32 -1 23 -4z m-1369 -46
c1 -5 -3 -5 -9 -2 -5 3 -10 16 -9 28 0 21 1 21 9 2 5 -11 9 -24 9 -28z m1486
12 c11 -16 1 -19 -13 -3 -7 8 -8 14 -3 14 5 0 13 -5 16 -11z m-85 -9 c0 -5 -5
-10 -11 -10 -5 0 -7 5 -4 10 3 6 8 10 11 10 2 0 4 -4 4 -10z m-90 -15 c0 -2
-9 -3 -19 -2 -11 0 -18 5 -15 9 4 6 34 0 34 -7z m60 -5 c0 -5 -2 -10 -4 -10
-3 0 -8 5 -11 10 -3 6 -1 10 4 10 6 0 11 -4 11 -10z m-1433 -32 c-3 -8 -6 -5
-6 6 -1 11 2 17 5 13 3 -3 4 -12 1 -19z m1583 2 c0 -5 -4 -10 -10 -10 -5 0
-10 5 -10 10 0 6 5 10 10 10 6 0 10 -4 10 -10z m-50 -23 c-14 -6 -27 -15 -30
-19 -6 -8 -48 -13 -99 -10 -49 3 -30 15 26 17 26 1 49 7 51 13 2 7 20 12 40
11 36 0 36 -1 12 -12z m50 -7 c0 -5 -7 -10 -16 -10 -8 0 -12 5 -9 10 3 6 10
10 16 10 5 0 9 -4 9 -10z m-1490 -8 c0 -10 -70 -36 -77 -28 -3 3 3 8 13 11 10
4 26 10 34 15 19 11 30 12 30 2z m1495 -44 c-1 -18 5 -28 15 -29 10 0 11 -2 3
-6 -7 -2 -13 -12 -14 -21 0 -12 -4 -9 -12 8 -6 14 -18 29 -27 34 -17 11 -72 9
-107 -5 -37 -14 -26 6 15 27 21 10 58 19 83 19 41 0 44 -2 44 -27z m75 22 c0
-6 12 -8 28 -5 24 5 23 4 -7 -10 -31 -14 -71 -20 -71 -11 0 2 3 11 6 20 7 17
44 22 44 6z m125 -45 c-48 -16 -83 -19 -69 -6 10 10 46 18 84 19 19 0 15 -3
-15 -13z m-85 -20 c0 -9 -59 -35 -79 -35 -14 0 -19 5 -15 15 4 10 13 13 24 10
10 -3 21 -1 25 5 6 10 45 15 45 5z m84 -26 c-8 -14 -41 -11 -41 4 0 9 9 12 24
9 12 -2 20 -8 17 -13z m-58 -8 c-4 -5 0 -11 6 -13 7 -3 -7 -8 -31 -12 -47 -7
-83 9 -40 18 13 3 33 7 44 9 11 3 21 5 23 6 2 0 1 -3 -2 -8z m-1511 -11 c13
-6 2 -7 -30 -3 -27 3 -52 7 -54 9 -9 8 65 2 84 -6z m-133 -12 c-9 -9 -15 -9
-24 0 -9 9 -7 12 12 12 19 0 21 -3 12 -12z m1515 6 c-3 -3 -12 -4 -19 -1 -8 3
-5 6 6 6 11 1 17 -2 13 -5z m223 -34 c0 -10 -37 -20 -70 -20 -24 1 -24 1 -7
15 19 14 77 18 77 5z m63 3 c-7 -2 -19 -2 -25 0 -7 3 -2 5 12 5 14 0 19 -2 13
-5z m-1740 -10 c-7 -2 -19 -2 -25 0 -7 3 -2 5 12 5 14 0 19 -2 13 -5z m1767
-13 c-8 -5 -24 -10 -35 -10 -12 0 -25 -4 -30 -9 -6 -5 -19 -5 -30 -1 -16 6
-13 9 20 14 22 4 47 9 55 11 29 6 35 5 20 -5z m127 -16 c-3 -3 -12 -4 -19 -1
-8 3 -5 6 6 6 11 1 17 -2 13 -5z m-1797 -24 c13 -9 13 -10 0 -10 -8 0 -22 5
-30 10 -13 9 -13 10 0 10 8 0 22 -5 30 -10z m115 -4 c47 -20 45 -29 -2 -12
-21 8 -45 17 -53 19 -11 4 -11 6 3 6 10 1 33 -6 52 -13z m1604 -10 c9 -11 9
-16 0 -22 -7 -4 -15 -2 -17 4 -2 7 -13 12 -23 12 -11 0 -17 5 -14 10 9 15 41
12 54 -4z m-69 -22 c0 -8 -5 -12 -10 -9 -6 4 -8 11 -5 16 9 14 15 11 15 -7z
m115 -4 c-3 -5 -11 -10 -16 -10 -6 0 -7 5 -4 10 3 6 11 10 16 10 6 0 7 -4 4
-10z m-1745 -391 c0 -10 -4 -19 -10 -19 -5 0 -10 4 -10 9 0 5 -3 17 -6 25 -5
12 -2 15 10 10 9 -3 16 -15 16 -25z m-70 -9 c0 -5 -5 -10 -11 -10 -5 0 -7 5
-4 10 3 6 8 10 11 10 2 0 4 -4 4 -10z m-295 -10 c3 -6 -1 -7 -9 -4 -18 7 -21
14 -7 14 6 0 13 -4 16 -10z m-135 -174 c0 -3 -4 -8 -10 -11 -5 -3 -10 -1 -10
4 0 6 5 11 10 11 6 0 10 -2 10 -4z m-135 -434 c-3 -3 -11 0 -18 7 -9 10 -8 11
6 5 10 -3 15 -9 12 -12z m-2298 -24 c-3 -7 -5 -2 -5 12 0 14 2 19 5 13 2 -7 2
-19 0 -25z m-431 -345 c-11 -12 -27 13 -20 32 7 17 8 17 17 -3 6 -12 7 -25 3
-29z m-2056 -724 c0 -6 -4 -7 -10 -4 -5 3 -10 11 -10 16 0 6 5 7 10 4 6 -3 10
-11 10 -16z m1193 6 c-3 -9 -8 -14 -10 -11 -3 3 -2 9 2 15 9 16 15 13 8 -4z
m-106 -57 c-3 -8 -6 -5 -6 6 -1 11 2 17 5 13 3 -3 4 -12 1 -19z m-1047 -232
c0 -3 -4 -8 -10 -11 -5 -3 -10 -1 -10 4 0 6 5 11 10 11 6 0 10 -2 10 -4z m567
-173 c-3 -10 -5 -2 -5 17 0 19 2 27 5 18 2 -10 2 -26 0 -35z m0 -100 c-3 -10
-5 -4 -5 12 0 17 2 24 5 18 2 -7 2 -21 0 -30z m-642 -63 c-3 -5 -11 -10 -16
-10 -6 0 -7 5 -4 10 3 6 11 10 16 10 6 0 7 -4 4 -10z"/>
<path d="M8763 7447 c0 -7 6 -18 14 -25 14 -14 17 -4 7 22 -7 19 -21 21 -21 3z"/>
<path d="M5653 7353 c-46 -56 -131 -180 -161 -238 -29 -54 -72 -155 -72 -168
0 -6 -6 -18 -14 -26 -13 -15 -56 -133 -56 -155 0 -26 18 15 35 77 9 37 19 66
21 64 2 -2 -5 -39 -16 -83 -23 -91 -24 -118 -7 -158 13 -29 15 -25 65 129 63
191 148 397 234 568 10 20 17 37 15 37 -2 0 -22 -21 -44 -47z"/>
<path d="M6731 7254 c-30 -8 -57 -17 -60 -20 -9 -8 -8 -44 1 -44 33 0 98 26
128 50 34 29 34 29 10 29 -14 0 -50 -7 -79 -15z"/>
<path d="M7975 7242 c-3 -3 -5 -12 -5 -20 0 -9 3 -12 7 -9 3 4 12 2 20 -5 7
-6 17 -7 21 -3 4 4 2 10 -5 12 -7 2 -10 10 -7 17 5 12 -20 18 -31 8z"/>
<path d="M8908 7234 c-3 -3 1 -23 9 -44 12 -31 18 -36 29 -27 10 10 8 15 -9
30 -20 17 -20 18 -3 13 19 -7 19 -6 1 14 -20 22 -20 22 -27 14z"/>
<path d="M6568 7181 c-6 -10 -16 -17 -23 -15 -24 10 -295 -190 -295 -217 0 -5
25 11 56 37 31 25 74 57 95 71 22 14 39 29 39 33 0 4 6 7 13 7 22 -2 167 72
166 85 0 10 -2 10 -6 1 -2 -7 -9 -13 -14 -13 -4 0 -6 7 -3 15 9 22 -14 18 -28
-4z"/>
<path d="M5532 6978 c-103 -279 -126 -362 -116 -422 l9 -51 44 180 c24 99 63
240 87 314 24 74 42 136 40 138 -2 2 -31 -69 -64 -159z"/>
<path d="M5165 6745 c0 -352 1 -384 17 -382 9 2 24 9 34 17 16 13 17 13 11 -2
-3 -10 -2 -18 2 -18 5 0 12 8 16 18 7 15 9 13 15 -8 5 -19 10 -4 23 65 9 50
17 109 17 131 0 23 7 78 15 122 l16 81 -60 134 c-33 74 -70 155 -83 180 l-23
46 0 -384z m62 -32 c-3 -10 -5 -2 -5 17 0 19 2 27 5 18 2 -10 2 -26 0 -35z m0
-60 c-3 -10 -5 -4 -5 12 0 17 2 24 5 18 2 -7 2 -21 0 -30z"/>
<path d="M6509 7094 c-40 -19 -79 -44 -87 -55 -7 -11 -17 -17 -22 -14 -23 14
-229 -182 -322 -307 -82 -109 -124 -175 -102 -158 83 67 153 133 148 141 -3 5
0 9 6 9 6 0 10 6 9 13 -4 34 2 41 17 18 13 -18 18 -20 25 -10 5 8 13 15 19 15
23 3 24 5 10 15 -12 8 -10 9 7 4 16 -4 25 0 33 15 6 12 14 19 17 16 3 -3 0
-12 -7 -21 -16 -19 -11 -19 43 4 25 11 47 25 50 33 4 10 7 11 15 0 12 -18 72
-11 86 10 6 10 17 18 24 18 7 0 10 5 7 10 -3 6 0 10 7 10 17 0 67 28 104 58
22 18 25 25 14 32 -11 7 -11 11 -1 24 7 8 10 20 6 26 -4 6 1 27 10 46 9 20 14
38 11 41 -3 4 -6 1 -6 -5 0 -7 -5 -12 -11 -12 -5 0 -7 5 -4 11 4 6 -2 19 -13
29 -20 18 -21 18 -93 -16z m-140 -148 c-12 -20 -23 -35 -26 -32 -2 2 6 20 19
39 30 46 35 40 7 -7z m-60 -95 c-12 -23 -24 -39 -27 -37 -2 2 7 22 20 44 12
23 24 39 26 37 2 -2 -6 -22 -19 -44z"/>
<path d="M8954 7118 c-4 -7 -3 -10 1 -5 5 4 14 -5 21 -20 l12 -28 -1 32 c-2
33 -20 44 -33 21z"/>
<path d="M8510 7096 c0 -9 5 -16 10 -16 6 0 10 4 10 9 0 6 -4 13 -10 16 -5 3
-10 -1 -10 -9z"/>
<path d="M8550 7095 c0 -17 18 -19 38 -6 11 7 10 10 -3 15 -26 10 -35 7 -35
-9z"/>
<path d="M8810 7060 c0 -5 5 -10 10 -10 6 0 10 5 10 10 0 6 -4 10 -10 10 -5 0
-10 -4 -10 -10z"/>
<path d="M8810 7005 c-11 -13 -10 -14 4 -9 9 3 16 10 16 15 0 13 -6 11 -20 -6z"/>
<path d="M8855 7001 c-3 -5 -1 -12 4 -15 5 -3 11 1 15 9 6 16 -9 21 -19 6z"/>
<path d="M9031 6970 c0 -8 4 -24 9 -35 l9 -20 0 20 c0 11 -4 27 -9 35 -9 13
-10 13 -9 0z"/>
<path d="M6219 6923 c-13 -16 -12 -17 4 -4 9 7 17 15 17 17 0 8 -8 3 -21 -13z"/>
<path d="M9051 6884 c0 -11 3 -14 6 -6 3 7 2 16 -1 19 -3 4 -6 -2 -5 -13z"/>
<path d="M9091 6773 c0 -4 4 -17 9 -28 8 -19 9 -19 9 2 1 12 -3 25 -9 28 -5 3
-10 3 -9 -2z"/>
<path d="M6365 6759 c-11 -17 1 -21 15 -4 8 9 8 15 2 15 -6 0 -14 -5 -17 -11z"/>
<path d="M6253 6730 c-13 -5 -23 -16 -23 -24 0 -27 16 -25 34 5 9 16 16 29 14
28 -2 0 -13 -4 -25 -9z"/>
<path d="M5341 6704 c0 -11 3 -14 6 -6 3 7 2 16 -1 19 -3 4 -6 -2 -5 -13z"/>
<path d="M9111 6679 c-1 -9 -8 -20 -17 -23 -13 -5 -14 -9 -4 -21 7 -8 10 -21
7 -30 -4 -8 0 -29 7 -47 20 -52 11 -144 -20 -215 -17 -38 -17 -42 0 -75 12
-23 12 -34 2 -70 -7 -24 -16 -77 -20 -117 -5 -43 -13 -79 -21 -85 -18 -14 -24
-62 -7 -58 18 3 15 -25 -4 -32 -22 -8 -8 -26 21 -26 28 0 42 17 26 33 -15 15
-14 27 3 27 18 0 26 23 28 86 1 27 6 55 12 63 6 8 11 39 12 70 0 31 4 91 9
133 6 58 5 81 -5 93 -7 8 -8 15 -2 15 10 0 6 65 -8 132 -5 22 -4 36 1 32 5 -3
9 2 9 10 0 8 -5 18 -10 21 -6 3 -8 16 -5 28 4 13 2 34 -4 47 -6 16 -10 19 -10
9z m-4 -511 c-3 -8 -6 -5 -6 6 -1 11 2 17 5 13 3 -3 4 -12 1 -19z m13 -66 c0
-13 -12 -22 -22 -16 -10 6 -1 24 13 24 5 0 9 -4 9 -8z"/>
<path d="M5331 6568 c-19 -106 -25 -202 -10 -193 5 4 13 31 51 182 10 42 3
123 -12 123 -4 0 -17 -51 -29 -112z"/>
<path d="M6076 6603 c-6 -14 -5 -15 5 -6 7 7 10 15 7 18 -3 3 -9 -2 -12 -12z"/>
<path d="M5382 6489 c-18 -92 -19 -109 -11 -109 14 0 39 63 39 99 0 64 -17 70
-28 10z"/>
<path d="M8900 6520 c0 -5 9 -10 21 -10 11 0 17 5 14 10 -3 6 -13 10 -21 10
-8 0 -14 -4 -14 -10z"/>
<path d="M3545 6490 c10 -11 20 -20 23 -20 3 0 -3 9 -13 20 -10 11 -20 20 -23
20 -3 0 3 -9 13 -20z"/>
<path d="M8950 6419 c0 -5 5 -7 10 -4 6 3 10 8 10 11 0 2 -4 4 -10 4 -5 0 -10
-5 -10 -11z"/>
<path d="M7337 6222 c-10 -10 -17 -25 -16 -33 0 -8 5 -4 11 9 6 12 17 22 25
22 7 0 13 5 13 10 0 16 -15 12 -33 -8z"/>
<path d="M8080 6210 c-24 -15 -7 -19 20 -5 15 8 19 14 10 14 -8 1 -22 -3 -30
-9z"/>
<path d="M8045 6170 c-3 -6 1 -13 10 -16 19 -8 30 0 20 15 -8 14 -22 14 -30 1z"/>
<path d="M9003 6163 c-27 -5 -41 -22 -53 -62 -8 -29 -7 -31 16 -31 13 0 23 3
22 8 -5 21 16 71 35 80 23 11 18 12 -20 5z"/>
<path d="M6976 6142 c-14 -16 -14 -20 -3 -25 8 -3 20 0 26 6 6 6 14 8 18 4 4
-4 1 -13 -5 -19 -7 -7 -12 -19 -12 -27 1 -11 9 -6 25 14 28 34 32 55 11 55 -8
0 -21 2 -28 5 -8 3 -22 -3 -32 -13z"/>
<path d="M8900 6150 c0 -5 5 -10 11 -10 5 0 7 5 4 10 -3 6 -8 10 -11 10 -2 0
-4 -4 -4 -10z"/>
<path d="M8941 6144 c0 -11 3 -14 6 -6 3 7 2 16 -1 19 -3 4 -6 -2 -5 -13z"/>
<path d="M7057 6118 c-9 -31 -2 -33 17 -3 13 20 14 25 2 25 -7 0 -16 -10 -19
-22z"/>
<path d="M7956 6095 c-3 -8 -2 -15 3 -15 5 0 14 7 21 15 10 12 10 15 -3 15 -8
0 -17 -7 -21 -15z"/>
<path d="M8971 5944 c0 -11 3 -14 6 -6 3 7 2 16 -1 19 -3 4 -6 -2 -5 -13z"/>
<path d="M4661 5612 c-6 -27 -9 -56 -5 -65 11 -29 -5 -66 -29 -72 -33 -9 -52
-64 -37 -110 9 -27 19 -37 48 -45 20 -5 42 -10 48 -10 5 0 19 -7 30 -15 18
-15 18 -15 0 -8 -13 4 -17 3 -12 -5 4 -7 3 -12 -3 -12 -6 0 -8 -7 -4 -17 5
-13 2 -15 -18 -10 -13 4 -28 7 -34 8 -5 0 1 5 15 10 22 8 21 8 -8 4 -38 -5
-86 10 -77 25 4 6 3 10 -2 9 -26 -6 -112 64 -93 76 5 3 10 13 10 20 0 12 -4
11 -20 -2 -11 -10 -20 -28 -20 -40 0 -13 -4 -23 -9 -23 -14 0 -20 27 -8 39 15
15 -1 27 -21 15 -20 -13 -49 -63 -49 -86 0 -18 12 -24 20 -10 2 4 2 1 0 -7 -2
-8 2 -18 9 -23 10 -6 8 -8 -4 -8 -10 0 -18 -7 -18 -15 0 -13 4 -14 21 -5 25
14 41 3 16 -11 -9 -6 -17 -17 -17 -25 0 -8 5 -12 10 -9 6 3 10 -4 10 -17 0
-16 -3 -19 -9 -10 -7 11 -9 11 -14 -2 -9 -23 2 -46 19 -39 12 4 13 0 4 -22 -6
-15 -6 -33 -2 -41 7 -13 10 -13 22 1 9 11 10 19 3 23 -13 8 -14 62 -2 62 9 0
12 -11 10 -45 0 -11 2 -14 5 -7 3 6 10 12 15 12 5 0 2 -11 -7 -25 -20 -31 -25
-76 -10 -94 8 -11 8 -15 -1 -18 -7 -3 -13 -10 -13 -16 0 -7 -15 -19 -32 -27
-35 -17 -49 -40 -23 -40 16 0 87 47 93 63 2 4 13 7 24 7 12 0 36 15 54 34 28
29 42 35 96 41 36 4 90 20 127 37 47 21 66 26 71 17 5 -6 19 -10 34 -7 23 5
25 2 21 -19 -3 -18 -1 -22 8 -15 22 17 47 10 47 -14 0 -20 4 -22 34 -17 32 5
57 -9 37 -22 -6 -3 -8 -12 -5 -20 4 -8 9 -13 13 -10 4 2 8 -1 9 -8 9 -86 16
-107 33 -107 10 0 21 -4 24 -10 3 -5 -1 -10 -9 -10 -25 0 -27 -16 -6 -40 12
-14 18 -31 14 -42 -3 -10 0 -18 6 -18 18 0 32 -50 19 -66 -9 -11 -8 -14 3 -14
7 0 15 -8 16 -17 1 -10 3 -30 5 -46 2 -15 12 -33 22 -41 10 -7 15 -18 11 -24
-3 -6 7 -24 23 -41 16 -16 27 -32 24 -35 -3 -3 2 -12 11 -21 9 -9 16 -22 16
-28 0 -7 9 -20 20 -29 18 -16 19 -16 16 17 -1 19 -9 42 -18 52 -8 10 -18 25
-22 33 -3 8 -16 30 -27 49 -11 19 -22 53 -24 74 -2 22 -10 44 -17 48 -10 7
-10 9 1 9 11 0 12 3 4 11 -6 6 -9 18 -6 25 3 7 -2 20 -10 28 -13 14 -13 20 0
58 12 36 13 53 3 100 -14 65 -9 88 19 88 21 0 45 32 34 44 -3 3 -16 6 -27 7
-12 1 -5 5 17 11 36 10 52 38 21 38 -8 0 -12 5 -9 10 4 6 11 8 16 4 12 -7 43
24 45 44 1 6 2 21 3 33 1 14 6 19 16 15 22 -8 18 19 -7 47 -21 24 -23 24 -48
9 -14 -9 -28 -22 -33 -29 -4 -7 -14 -10 -22 -7 -9 4 -15 0 -15 -10 0 -9 -4
-16 -10 -16 -5 0 -10 5 -10 10 0 6 -5 10 -11 10 -7 0 -9 -9 -6 -21 4 -17 3
-19 -6 -10 -16 16 -27 14 -27 -5 0 -10 -6 -14 -15 -10 -8 3 -15 1 -15 -4 0 -5
-10 -14 -21 -21 -16 -8 -23 -8 -29 1 -6 9 -9 9 -13 -1 -4 -12 -7 -11 -16 1
-10 13 -12 13 -20 1 -8 -12 -11 -10 -16 10 -4 16 -13 25 -26 25 -10 0 -19 -4
-19 -8 0 -4 5 -8 12 -8 6 0 8 -3 4 -7 -4 -5 -14 1 -22 12 -8 11 -18 20 -22 21
-34 4 -60 18 -60 32 1 18 -41 124 -53 132 -9 6 -50 115 -48 126 1 5 0 11 -1
14 -1 5 -7 38 -13 85 -1 11 -6 25 -10 32 -4 7 -5 24 -1 38 6 23 -9 55 -25 55
-4 0 -13 -22 -20 -48z m-51 -362 c0 -5 -2 -10 -4 -10 -3 0 -8 5 -11 10 -3 6
-1 10 4 10 6 0 11 -4 11 -10z m-143 -82 c-3 -8 -6 -5 -6 6 -1 11 2 17 5 13 3
-3 4 -12 1 -19z m123 -8 c0 -11 -7 -20 -15 -20 -8 0 -15 9 -15 20 0 11 7 20
15 20 8 0 15 -9 15 -20z m-43 3 c-4 -3 -1 -16 7 -28 13 -20 12 -21 -24 -20
l-38 0 16 28 c9 15 23 27 31 27 8 0 11 -3 8 -7z m48 -53 c3 -5 1 -10 -4 -10
-6 0 -11 5 -11 10 0 6 2 10 4 10 3 0 8 -4 11 -10z"/>
<path d="M5306 5243 c3 -15 13 -35 21 -43 12 -13 15 -13 23 0 5 8 7 24 4 35
-8 24 -4 21 -32 30 -21 6 -22 4 -16 -22z"/>
<path d="M5360 5251 c0 -9 24 -21 41 -21 5 0 9 7 9 15 0 9 -9 15 -25 15 -14 0
-25 -4 -25 -9z"/>
<path d="M4922 5188 c6 -18 28 -21 28 -4 0 9 -7 16 -16 16 -9 0 -14 -5 -12
-12z"/>
<path d="M4860 5011 c0 -6 5 -13 10 -16 6 -3 10 1 10 9 0 9 -4 16 -10 16 -5 0
-10 -4 -10 -9z"/>
<path d="M4900 4940 c0 -5 5 -10 11 -10 5 0 7 5 4 10 -3 6 -8 10 -11 10 -2 0
-4 -4 -4 -10z"/>
<path d="M8605 4580 l-20 -9 20 -1 c11 -1 14 -4 8 -7 -18 -7 -16 -23 2 -23 8
0 15 7 15 16 0 8 4 12 10 9 6 -3 7 1 4 9 -7 18 -10 18 -39 6z"/>
<path d="M8550 4540 c-9 -16 -8 -18 5 -14 8 4 15 12 15 20 0 20 -7 17 -20 -6z"/>
<path d="M8858 4553 c7 -3 16 -2 19 1 4 3 -2 6 -13 5 -11 0 -14 -3 -6 -6z"/>
<path d="M8705 4540 c-3 -5 -1 -10 4 -10 6 0 11 5 11 10 0 6 -2 10 -4 10 -3 0
-8 -4 -11 -10z"/>
<path d="M7733 4243 c-15 -6 -17 -69 -3 -78 6 -4 8 -10 5 -15 -3 -5 0 -12 6
-15 5 -4 8 -14 4 -23 -8 -21 92 -113 146 -134 20 -8 27 6 9 17 -6 4 -8 10 -5
15 3 5 0 29 -7 52 -7 24 -12 49 -13 56 0 8 -8 20 -18 27 -10 7 -14 15 -8 16
13 5 -6 29 -50 62 -36 27 -44 30 -66 20z"/>
<path d="M5430 4075 c0 -8 2 -15 4 -15 2 0 6 7 10 15 3 8 1 15 -4 15 -6 0 -10
-7 -10 -15z"/>
<path d="M5220 4071 c0 -5 5 -11 12 -13 6 -2 8 -9 4 -16 -9 -15 -36 -4 -37 17
0 9 -3 11 -5 5 -3 -6 2 -24 10 -39 17 -33 11 -49 -9 -22 -10 13 -14 15 -18 5
-3 -7 -6 3 -6 22 -1 25 -4 31 -10 21 -8 -13 -12 -13 -27 0 -13 10 -12 3 7 -31
14 -25 30 -44 36 -43 6 1 40 3 77 5 36 1 66 6 66 10 0 4 9 8 21 8 18 0 19 2 5
15 -8 8 -24 15 -34 15 -11 0 -23 6 -25 13 -4 9 -7 9 -14 -1 -7 -9 -13 -6 -23
13 -13 25 -30 34 -30 16z"/>
<path d="M5371 4064 c0 -11 3 -14 6 -6 3 7 2 16 -1 19 -3 4 -6 -2 -5 -13z"/>
<path d="M5400 4060 c0 -5 5 -10 10 -10 6 0 10 5 10 10 0 6 -4 10 -10 10 -5 0
-10 -4 -10 -10z"/>
<path d="M5037 4039 c-9 -5 -22 -7 -27 -4 -12 7 -13 -9 -4 -55 5 -22 9 -28 15
-18 5 7 9 9 9 3 0 -11 79 -13 97 -2 18 11 3 48 -23 58 -13 4 -24 13 -24 19 0
13 -20 12 -43 -1z"/>
<path d="M4910 4004 c0 -21 3 -23 18 -15 14 7 22 5 32 -10 8 -10 18 -19 23
-19 5 0 4 7 -3 15 -7 8 -10 21 -7 30 4 8 2 17 -3 20 -6 4 -10 2 -10 -4 0 -7
-8 -7 -25 -1 -23 9 -25 7 -25 -16z"/>
<path d="M8081 3724 c0 -11 3 -14 6 -6 3 7 2 16 -1 19 -3 4 -6 -2 -5 -13z"/>
<path d="M7580 3505 c0 -18 45 -49 60 -40 15 9 12 28 -3 22 -7 -3 -19 4 -25
14 -14 23 -32 25 -32 4z"/>
<path d="M7226 3368 c-32 -37 -33 -46 -3 -52 63 -14 72 -12 70 16 -1 15 -10
35 -21 46 -19 19 -20 19 -46 -10z"/>
<path d="M5365 3330 c-3 -5 -16 -10 -27 -10 -12 0 -19 -2 -16 -5 9 -9 88 7 82
16 -7 12 -31 11 -39 -1z"/>
<path d="M7160 3290 c0 -5 5 -10 11 -10 5 0 7 5 4 10 -3 6 -8 10 -11 10 -2 0
-4 -4 -4 -10z"/>
<path d="M5101 3244 c0 -11 3 -14 6 -6 3 7 2 16 -1 19 -3 4 -6 -2 -5 -13z"/>
<path d="M5115 3219 c-4 -6 -5 -12 -2 -15 2 -3 7 2 10 11 7 17 1 20 -8 4z"/>
<path d="M4912 3140 c0 -14 2 -19 5 -12 2 6 2 18 0 25 -3 6 -5 1 -5 -13z"/>
<path d="M4030 2330 c0 -5 5 -10 11 -10 5 0 7 5 4 10 -3 6 -8 10 -11 10 -2 0
-4 -4 -4 -10z"/>
</g>
</svg>
